:SAMPLES-PER-SECOND 30
:FULLY-SPECIFIED
:DEGREES
375
root  21.5086 40.0293 27.2161 174.836 33.4145 -178.611
RightUpLeg  3.02566 -18.5952 -6.50716
RightLeg  16.1492 -27.4772 0.259881
RightFoot  -7.19856 -0.0393286 -0.252405
RightToes  0.00048216 0.542163 -0.142577
Spine  21.2595 0.249436 13.5123
Spine1  7.21532 4.56533 -7.30328
HEad  -21.6765 54.6362 -34.0876
LeftShoulder1  9.16002 -13.7393 -46.3398
LeftArm  -15.91 18.4898 -25.0454
LeftForeArm  67.853 -79.2118 -77.3857
LeftHand  -0.25398 0.0180481 5.50724
RightShoulder  5.09574 9.42243 33.4778
RightArm  -11.9043 -27.8429 22.9086
RightForeArm  53.7554 77.3954 106.169
RightHand  0.257942 -16.1715 -3.88781
LeftUpLeg  -16.7894 22.4095 -2.84038
LeftLeg  20.6029 -2.41483 -0.683619
LeftFoot  -2.03368 0.518746 -6.2414
LeftToes  1.06248e-005 4.65855e-005 -8.185e-006
376
root  20.6601 40.1871 26.8412 175.278 28.5866 -179.519
RightUpLeg  3.27473 -14.621 -8.27649
RightLeg  14.1254 -35.3816 0.612035
RightFoot  -4.86967 -0.074301 0.721249
RightToes  0.00048216 0.542163 -0.142577
Spine  18.3982 0.841995 12.4865
Spine1  7.19432 4.65851 -7.05611
HEad  -18.0017 52.7331 -30.0039
LeftShoulder1  8.96375 -13.583 -45.7437
LeftArm  -15.9574 19.6939 -25.3469
LeftForeArm  73.3669 -79.3901 -82.8619
LeftHand  -0.25398 0.0180481 5.50724
RightShoulder  5.10671 9.3889 33.6643
RightArm  -11.6175 -29.5622 23.1316
RightForeArm  57.0208 77.1339 109.763
RightHand  0.320819 -15.485 -4.78986
LeftUpLeg  -15.9131 19.618 -0.208749
LeftLeg  20.9997 0.719664 0.624797
LeftFoot  -2.48005 0.384681 -4.79345
LeftToes  1.06248e-005 4.65855e-005 -8.185e-006
377
root  19.7535 40.243 26.4019 176.33 24.2019 -179.964
RightUpLeg  3.34899 -14.2979 -10.0297
RightLeg  12.5285 -39.3794 0.803097
RightFoot  -2.74205 -0.165008 1.94448
RightToes  0.00048216 0.542163 -0.142577
Spine  15.2608 1.50774 11.5164
Spine1  7.31487 4.8584 -6.78871
HEad  -15.0501 50.6406 -26.6421
LeftShoulder1  8.85356 -13.4483 -45.533
LeftArm  -16.4116 20.7341 -25.5085
LeftForeArm  78.6303 -79.482 -87.732
LeftHand  -0.25398 0.0180481 5.50724
RightShoulder  5.10471 9.2981 33.9276
RightArm  -11.3249 -30.7238 23.3176
RightForeArm  59.3214 76.9336 112.118
RightHand  0.355982 -14.9612 -5.40958
LeftUpLeg  -15.5314 17.5559 2.47604
LeftLeg  20.2801 3.85276 1.89458
LeftFoot  -2.07223 0.222465 -2.5968
LeftToes  1.06248e-005 4.65855e-005 -8.185e-006
378
root  18.7612 40.2441 25.8982 177.505 20.1492 179.672
RightUpLeg  3.57482 -14.9524 -11.9963
RightLeg  11.0051 -42.2909 1.11514
RightFoot  -1.0492 -0.29161 3.16458
RightToes  0.00048216 0.542163 -0.142577
Spine  12.2327 2.09658 10.4316
Spine1  7.40643 5.04457 -6.66695
HEad  -12.5229 48.6424 -23.3565
LeftShoulder1  8.84643 -13.3428 -45.7897
LeftArm  -17.0888 21.6502 -25.331
LeftForeArm  82.1257 -79.4984 -91.0306
LeftHand  -0.25398 0.0180481 5.50724
RightShoulder  5.11137 9.18714 34.3247
RightArm  -11.0817 -31.2679 23.4283
RightForeArm  59.8192 76.8781 112.692
RightHand  0.368062 -15.5269 -5.29212
LeftUpLeg  -15.2579 17.0377 4.61214
LeftLeg  18.5404 7.53405 3.12904
LeftFoot  -2.38434 -0.0178449 0.453557
LeftToes  1.06248e-005 4.65855e-005 -8.185e-006
379
root  17.681 40.228 25.3201 178.502 15.9249 179.182
RightUpLeg  4.21304 -15.6113 -14.2806
RightLeg  9.5641 -45.126 1.44669
RightFoot  0.701336 -0.408164 3.91648
RightToes  0.00048216 0.542163 -0.142577
Spine  9.37287 2.44633 9.1262
Spine1  7.67697 5.05424 -6.57302
HEad  -10.2179 46.5272 -20.2759
LeftShoulder1  8.8617 -13.2452 -46.1467
LeftArm  -17.6113 22.2745 -25.1386
LeftForeArm  82.8144 -79.4854 -91.9131
LeftHand  -0.25398 0.0180481 5.50724
RightShoulder  5.14268 9.112 34.806
RightArm  -11.2002 -31.4895 23.5728
RightForeArm  59.1717 76.9292 112.116
RightHand  0.376608 -16.462 -4.99542
LeftUpLeg  -14.787 19.0698 5.63879
LeftLeg  16.5427 13.3863 4.66393
LeftFoot  -3.66034 -0.147956 2.50412
LeftToes  1.06248e-005 4.65855e-005 -8.185e-006
380
root  16.5522 40.176 24.6709 179.082 11.4187 178.93
RightUpLeg  5.99306 -16.0214 -16.4826
RightLeg  7.70109 -47.9573 2.13554
RightFoot  2.76666 -0.571848 4.75319
RightToes  0.00048216 0.542163 -0.142577
Spine  6.98295 2.58958 7.85848
Spine1  8.25548 4.95702 -6.38684
HEad  -8.04156 43.931 -17.4102
LeftShoulder1  8.81556 -13.1327 -46.2187
LeftArm  -17.7006 22.4279 -25.3431
LeftForeArm  81.7951 -79.4863 -90.9594
LeftHand  -0.25398 0.0180481 5.50724
RightShoulder  5.17596 9.10374 35.0921
RightArm  -11.8511 -31.8647 23.8529
RightForeArm  59.0232 76.9553 111.861
RightHand  0.388577 -16.9109 -4.94845
LeftUpLeg  -14.0294 24.1379 5.99896
LeftLeg  15.678 21.2128 6.13737
LeftFoot  -4.03784 -0.129569 2.43464
LeftToes  1.06248e-005 4.65855e-005 -8.185e-006
